<svg xmlns="http://www.w3.org/2000/svg" viewBox="0 0 200 200" width="200" height="200" role="img" aria-label="Superfoods Partners — Origin roundel">
  <style>@import url('https://fonts.googleapis.com/css2?family=IBM+Plex+Mono:wght@400&amp;display=swap');</style>
  <circle cx="100" cy="100" r="92" fill="none" stroke="#F0ECE2" stroke-width="3"/>
  <circle cx="165" cy="35" r="6" fill="#E0A23E"/>
  <g transform="translate(49.15,0)" fill="#F0ECE2"><path d="M17.82 118.78Q11.16 118.78 6.87 115.3Q2.58 111.82 1.68 106.06L9.24 104.2Q9.9 108.04 12.27 109.96000000000001Q14.639999999999999 111.88 18.12 111.88Q19.98 111.88 21.45 111.25Q22.919999999999998 110.62 23.79 109.39Q24.66 108.16 24.66 106.48Q24.66 104.92 23.759999999999998 103.78Q22.86 102.64 21.03 101.68Q19.2 100.72 16.439999999999998 99.7Q12.48 98.14 9.81 96.37Q7.14 94.6 5.82 92.25999999999999Q4.5 89.92 4.5 86.74000000000001Q4.5 83.38 6.15 80.8Q7.8 78.22 10.77 76.72Q13.74 75.22 17.7 75.22Q21.9 75.22 25.169999999999998 77.17Q28.439999999999998 79.12 30.419999999999998 82.96000000000001L24.24 86.74000000000001Q22.98 84.46000000000001 21.27 83.29Q19.56 82.12 17.46 82.12Q15.959999999999999 82.12 14.79 82.69Q13.62 83.25999999999999 12.93 84.25Q12.24 85.24000000000001 12.24 86.56Q12.24 87.94 13.05 89.02Q13.86 90.1 15.69 91.09Q17.52 92.08 20.46 93.16Q24.36 94.6 26.97 96.34Q29.58 98.08 30.959999999999997 100.39Q32.339999999999996 102.7 32.339999999999996 106.0Q32.339999999999996 109.72 30.509999999999998 112.63Q28.68 115.54 25.439999999999998 117.16Q22.2 118.78 17.82 118.78ZM38.519999999999996 118.0V76.18H66.48V83.14H46.26V93.1H63.84V100.0H46.26V118.0ZM71.99999999999999 118.0V76.18H85.79999999999998Q92.88 76.18 96.47999999999999 79.21000000000001Q100.07999999999998 82.24000000000001 100.07999999999998 88.3Q100.07999999999998 94.36 96.41999999999999 97.53999999999999Q92.75999999999999 100.72 85.79999999999998 100.72H79.67999999999999V118.0ZM79.67999999999999 93.82H85.01999999999998Q88.49999999999999 93.82 90.41999999999999 92.59Q92.33999999999999 91.36 92.33999999999999 88.36Q92.33999999999999 85.48 90.50999999999999 84.31Q88.67999999999999 83.14 85.01999999999998 83.14H79.67999999999999Z"/></g>
  <path id="arc" d="M 44,132 A 62,62 0 0 0 156,132" fill="none"/>
  <text font-family="'IBM Plex Mono',monospace" font-size="15" letter-spacing="5" fill="#F0ECE2"><textPath href="#arc" startOffset="50%" text-anchor="middle">ORIGIN</textPath></text>
</svg>
