<svg xmlns="http://www.w3.org/2000/svg" viewBox="-3.27 3.46 174.43 54.18" width="174.43" height="54.18" role="img" aria-label="Superfoods Partners wordmark">
  <g fill="#14271B">
    <path d="M7.7219999999999995 26.338Q4.835999999999999 26.338 2.9769999999999994 24.83Q1.1179999999999999 23.322 0.728 20.826L4.004 20.02Q4.29 21.684 5.317 22.516Q6.343999999999999 23.348 7.851999999999999 23.348Q8.658 23.348 9.295 23.075Q9.932 22.802 10.309000000000001 22.269Q10.686 21.736 10.686 21.008Q10.686 20.332 10.296 19.838Q9.905999999999999 19.344 9.113 18.928Q8.32 18.512 7.124 18.07Q5.4079999999999995 17.394 4.2509999999999994 16.627Q3.094 15.860000000000001 2.522 14.846Q1.95 13.832 1.95 12.454Q1.95 10.998000000000001 2.665 9.88Q3.38 8.762 4.667 8.112Q5.954 7.462 7.67 7.462Q9.49 7.462 10.907 8.307Q12.324 9.152000000000001 13.181999999999999 10.816L10.504 12.454Q9.958 11.466000000000001 9.216999999999999 10.959Q8.475999999999999 10.452 7.566 10.452Q6.9159999999999995 10.452 6.409 10.699000000000002Q5.902 10.946000000000002 5.603 11.375Q5.303999999999999 11.804 5.303999999999999 12.376000000000001Q5.303999999999999 12.974 5.654999999999999 13.442Q6.005999999999999 13.91 6.7989999999999995 14.339Q7.592 14.768 8.866 15.236Q10.556 15.860000000000001 11.687 16.614Q12.818 17.368000000000002 13.416 18.369Q14.014 19.37 14.014 20.8Q14.014 22.412 13.221 23.673000000000002Q12.427999999999999 24.934 11.024 25.636000000000003Q9.62 26.338 7.7219999999999995 26.338ZM23.997999999999998 26.416Q20.566 26.416 18.811 24.674Q17.055999999999997 22.932 17.055999999999997 19.448V7.878H20.409999999999997V19.058Q20.409999999999997 20.462 20.708999999999996 21.411Q21.008 22.36 21.801 22.841Q22.593999999999998 23.322 23.997999999999998 23.322Q25.402 23.322 26.195 22.841Q26.988 22.36 27.299999999999997 21.411Q27.612 20.462 27.612 19.084V7.878H30.965999999999998V19.318Q30.965999999999998 22.854 29.198 24.634999999999998Q27.43 26.416 23.997999999999998 26.416ZM34.814 26.0V7.878H40.794000000000004Q43.862 7.878 45.422 9.191Q46.982 10.504000000000001 46.982 13.13Q46.982 15.756 45.396 17.134Q43.81 18.512 40.794000000000004 18.512H38.142V26.0ZM38.142 15.522H40.456Q41.964 15.522 42.796 14.989Q43.628 14.456000000000001 43.628 13.156Q43.628 11.908000000000001 42.835 11.401Q42.042 10.894 40.456 10.894H38.142ZM49.946 26.0V7.878H62.01V10.894H53.3V15.21H61.438V18.2H53.3V22.984H62.01V26.0ZM65.494 26.0V7.878H71.47399999999999Q73.684 7.878 75.036 8.515Q76.38799999999999 9.152000000000001 77.02499999999999 10.335Q77.66199999999999 11.518 77.66199999999999 13.13Q77.66199999999999 15.626000000000001 76.24499999999999 16.991Q74.82799999999999 18.356 72.202 18.512Q71.604 18.538 70.97999999999999 18.538Q70.356 18.538 69.914 18.538H68.848V26.0ZM75.348 26.0 70.798 18.148 74.22999999999999 17.732 79.222 26.0ZM68.848 15.522H71.136Q71.994 15.522 72.709 15.327Q73.42399999999999 15.132 73.86599999999999 14.625Q74.30799999999999 14.118 74.30799999999999 13.182Q74.30799999999999 12.22 73.86599999999999 11.726Q73.42399999999999 11.232000000000001 72.709 11.063Q71.994 10.894 71.136 10.894H68.848ZM81.926 26.0V7.878H94.042V10.894H85.28V15.21H92.898V18.2H85.28V26.0ZM104.91 26.416Q102.33599999999998 26.416 100.37299999999999 25.233Q98.40999999999998 24.05 97.31799999999998 21.918Q96.22599999999998 19.786 96.22599999999998 16.951999999999998Q96.22599999999998 14.092 97.31799999999998 11.96Q98.40999999999998 9.828 100.37299999999999 8.645Q102.33599999999998 7.462 104.91 7.462Q107.50999999999999 7.462 109.47299999999998 8.645Q111.43599999999999 9.828 112.52799999999999 11.96Q113.61999999999999 14.092 113.61999999999999 16.951999999999998Q113.61999999999999 19.786 112.51499999999999 21.918Q111.41 24.05 109.447 25.233Q107.484 26.416 104.91 26.416ZM104.88399999999999 23.192Q106.54799999999999 23.192 107.731 22.425Q108.91399999999999 21.658 109.564 20.254Q110.21399999999998 18.85 110.21399999999998 16.951999999999998Q110.21399999999998 15.028 109.564 13.624Q108.91399999999999 12.22 107.731 11.453Q106.54799999999999 10.686 104.88399999999999 10.686Q103.29799999999999 10.686 102.089 11.440000000000001Q100.88 12.194 100.243 13.598Q99.606 15.002 99.606 16.951999999999998Q99.606 18.876 100.243 20.28Q100.88 21.684 102.089 22.438000000000002Q103.29799999999999 23.192 104.88399999999999 23.192ZM124.852 26.416Q122.27799999999999 26.416 120.315 25.233Q118.35199999999999 24.05 117.25999999999999 21.918Q116.16799999999999 19.786 116.16799999999999 16.951999999999998Q116.16799999999999 14.092 117.25999999999999 11.96Q118.35199999999999 9.828 120.315 8.645Q122.27799999999999 7.462 124.852 7.462Q127.452 7.462 129.415 8.645Q131.378 9.828 132.46999999999997 11.96Q133.56199999999998 14.092 133.56199999999998 16.951999999999998Q133.56199999999998 19.786 132.457 21.918Q131.352 24.05 129.389 25.233Q127.426 26.416 124.852 26.416ZM124.826 23.192Q126.49 23.192 127.673 22.425Q128.856 21.658 129.506 20.254Q130.156 18.85 130.156 16.951999999999998Q130.156 15.028 129.506 13.624Q128.856 12.22 127.673 11.453Q126.49 10.686 124.826 10.686Q123.24 10.686 122.031 11.440000000000001Q120.822 12.194 120.185 13.598Q119.548 15.002 119.548 16.951999999999998Q119.548 18.876 120.185 20.28Q120.822 21.684 122.031 22.438000000000002Q123.24 23.192 124.826 23.192ZM136.838 26.0V7.878H142.116Q146.64000000000001 7.878 149.11 10.27Q151.58 12.662 151.58 17.082Q151.58 21.398 149.13600000000002 23.698999999999998Q146.692 26.0 142.09 26.0ZM140.192 22.906H141.752Q143.806 22.906 145.236 22.386Q146.666 21.866 147.433 20.566Q148.2 19.266 148.2 16.951999999999998Q148.2 14.716000000000001 147.459 13.403Q146.71800000000002 12.09 145.353 11.531Q143.988 10.972000000000001 142.064 10.972000000000001H140.192ZM160.86200000000002 26.338Q157.97600000000003 26.338 156.11700000000002 24.83Q154.258 23.322 153.86800000000002 20.826L157.144 20.02Q157.43 21.684 158.457 22.516Q159.484 23.348 160.99200000000002 23.348Q161.798 23.348 162.435 23.075Q163.072 22.802 163.449 22.269Q163.82600000000002 21.736 163.82600000000002 21.008Q163.82600000000002 20.332 163.43600000000004 19.838Q163.04600000000002 19.344 162.25300000000001 18.928Q161.46 18.512 160.264 18.07Q158.548 17.394 157.39100000000002 16.627Q156.234 15.860000000000001 155.662 14.846Q155.09 13.832 155.09 12.454Q155.09 10.998000000000001 155.805 9.88Q156.52 8.762 157.80700000000002 8.112Q159.09400000000002 7.462 160.81 7.462Q162.63000000000002 7.462 164.04700000000003 8.307Q165.46400000000003 9.152000000000001 166.322 10.816L163.644 12.454Q163.098 11.466000000000001 162.35700000000003 10.959Q161.616 10.452 160.70600000000002 10.452Q160.056 10.452 159.549 10.699000000000002Q159.042 10.946000000000002 158.743 11.375Q158.44400000000002 11.804 158.44400000000002 12.376000000000001Q158.44400000000002 12.974 158.79500000000002 13.442Q159.14600000000002 13.91 159.93900000000002 14.339Q160.73200000000003 14.768 162.00600000000003 15.236Q163.69600000000003 15.860000000000001 164.82700000000003 16.614Q165.95800000000003 17.368000000000002 166.55600000000004 18.369Q167.15400000000002 19.37 167.15400000000002 20.8Q167.15400000000002 22.412 166.36100000000002 23.673000000000002Q165.568 24.934 164.16400000000002 25.636000000000003Q162.76000000000002 26.338 160.86200000000002 26.338Z"/>
    <path d="M20.44900000000001 53.3V35.178H26.42900000000001Q29.497000000000007 35.178 31.057000000000006 36.491Q32.617000000000004 37.804 32.617000000000004 40.43Q32.617000000000004 43.056 31.031000000000006 44.434Q29.445000000000007 45.812 26.42900000000001 45.812H23.777000000000008V53.3ZM23.777000000000008 42.821999999999996H26.091000000000008Q27.599000000000007 42.821999999999996 28.431000000000004 42.289Q29.263000000000005 41.756 29.263000000000005 40.455999999999996Q29.263000000000005 39.208 28.470000000000006 38.70099999999999Q27.677000000000007 38.193999999999996 26.091000000000008 38.193999999999996H23.777000000000008ZM34.047000000000004 53.3 41.327000000000005 35.178H43.849000000000004L51.129000000000005 53.3H47.46300000000001L42.62700000000001 40.144L37.71300000000001 53.3ZM38.831 49.763999999999996 39.87100000000001 46.748H45.331L46.423 49.763999999999996ZM53.62500000000001 53.3V35.178H59.60500000000001Q61.81500000000001 35.178 63.16700000000001 35.815Q64.519 36.452 65.156 37.635Q65.793 38.818 65.793 40.43Q65.793 42.926 64.376 44.291Q62.95900000000001 45.656 60.33300000000001 45.812Q59.73500000000001 45.837999999999994 59.111000000000004 45.837999999999994Q58.48700000000001 45.837999999999994 58.04500000000001 45.837999999999994H56.97900000000001V53.3ZM63.47900000000001 53.3 58.92900000000001 45.448 62.36100000000001 45.032 67.35300000000001 53.3ZM56.97900000000001 42.821999999999996H59.26700000000001Q60.12500000000001 42.821999999999996 60.84 42.626999999999995Q61.55500000000001 42.431999999999995 61.99700000000001 41.925Q62.43900000000001 41.418 62.43900000000001 40.482Q62.43900000000001 39.519999999999996 61.99700000000001 39.025999999999996Q61.55500000000001 38.532 60.84 38.363Q60.12500000000001 38.193999999999996 59.26700000000001 38.193999999999996H56.97900000000001ZM74.21700000000001 53.3V38.193999999999996H68.60100000000001V35.178H83.21300000000001V38.193999999999996H77.62300000000002V53.3ZM85.76100000000001 53.3V35.178H89.21900000000001L97.66900000000001 48.906H96.837V35.178H100.191V53.3H96.70700000000001L88.283 39.546H89.11500000000001V53.3ZM104.19500000000001 53.3V35.178H116.259V38.193999999999996H107.549V42.51H115.687V45.5H107.549V50.284H116.259V53.3ZM119.74300000000001 53.3V35.178H125.723Q127.933 35.178 129.285 35.815Q130.637 36.452 131.274 37.635Q131.911 38.818 131.911 40.43Q131.911 42.926 130.494 44.291Q129.077 45.656 126.45100000000001 45.812Q125.85300000000001 45.837999999999994 125.22900000000001 45.837999999999994Q124.605 45.837999999999994 124.16300000000001 45.837999999999994H123.09700000000001V53.3ZM129.597 53.3 125.047 45.448 128.479 45.032 133.471 53.3ZM123.09700000000001 42.821999999999996H125.385Q126.24300000000001 42.821999999999996 126.958 42.626999999999995Q127.673 42.431999999999995 128.115 41.925Q128.55700000000002 41.418 128.55700000000002 40.482Q128.55700000000002 39.519999999999996 128.115 39.025999999999996Q127.673 38.532 126.958 38.363Q126.24300000000001 38.193999999999996 125.385 38.193999999999996H123.09700000000001ZM142.155 53.638Q139.269 53.638 137.41 52.129999999999995Q135.551 50.622 135.161 48.126L138.43699999999998 47.32Q138.72299999999998 48.983999999999995 139.75 49.815999999999995Q140.777 50.647999999999996 142.285 50.647999999999996Q143.09099999999998 50.647999999999996 143.72799999999998 50.375Q144.36499999999998 50.102 144.742 49.568999999999996Q145.119 49.035999999999994 145.119 48.308Q145.119 47.632 144.72899999999998 47.138Q144.339 46.644 143.546 46.227999999999994Q142.753 45.812 141.557 45.37Q139.84099999999998 44.693999999999996 138.68399999999997 43.92699999999999Q137.527 43.16 136.95499999999998 42.146Q136.38299999999998 41.132 136.38299999999998 39.754Q136.38299999999998 38.298 137.09799999999998 37.18Q137.813 36.062 139.1 35.412Q140.387 34.762 142.10299999999998 34.762Q143.923 34.762 145.34 35.607Q146.757 36.452 147.61499999999998 38.116L144.93699999999998 39.754Q144.391 38.766 143.64999999999998 38.259Q142.909 37.751999999999995 141.999 37.751999999999995Q141.349 37.751999999999995 140.84199999999998 37.998999999999995Q140.33499999999998 38.245999999999995 140.036 38.675Q139.737 39.104 139.737 39.676Q139.737 40.274 140.088 40.742Q140.439 41.209999999999994 141.232 41.638999999999996Q142.025 42.068 143.29899999999998 42.536Q144.989 43.16 146.12 43.914Q147.251 44.668 147.849 45.669Q148.447 46.669999999999995 148.447 48.099999999999994Q148.447 49.711999999999996 147.654 50.973Q146.861 52.233999999999995 145.457 52.93599999999999Q144.053 53.638 142.155 53.638Z"/>
  </g>
</svg>
