<svg xmlns="http://www.w3.org/2000/svg" viewBox="0 0 230 57" width="230" height="57" role="img" aria-label="Superfoods Partners wordmark">
  <g fill="#14271B">
    <g transform="translate(30.95,0)"><path d="M7.7219999999999995 24.338Q4.835999999999999 24.338 2.9769999999999994 22.83Q1.1179999999999999 21.322 0.728 18.826L4.004 18.02Q4.29 19.684 5.317 20.516Q6.343999999999999 21.348 7.851999999999999 21.348Q8.658 21.348 9.295 21.075Q9.932 20.802 10.309000000000001 20.269Q10.686 19.736 10.686 19.008Q10.686 18.332 10.296 17.838Q9.905999999999999 17.344 9.113 16.928Q8.32 16.512 7.124 16.07Q5.4079999999999995 15.394 4.2509999999999994 14.627Q3.094 13.860000000000001 2.522 12.846Q1.95 11.832 1.95 10.454Q1.95 8.998000000000001 2.665 7.880000000000001Q3.38 6.7620000000000005 4.667 6.112Q5.954 5.462 7.67 5.462Q9.49 5.462 10.907 6.307Q12.324 7.152000000000001 13.181999999999999 8.816L10.504 10.454Q9.958 9.466000000000001 9.216999999999999 8.959Q8.475999999999999 8.452 7.566 8.452Q6.9159999999999995 8.452 6.409 8.699000000000002Q5.902 8.946000000000002 5.603 9.375Q5.303999999999999 9.804 5.303999999999999 10.376000000000001Q5.303999999999999 10.974 5.654999999999999 11.442Q6.005999999999999 11.91 6.7989999999999995 12.339Q7.592 12.768 8.866 13.236Q10.556 13.860000000000001 11.687 14.614Q12.818 15.368 13.416 16.369Q14.014 17.37 14.014 18.8Q14.014 20.412 13.221 21.673000000000002Q12.427999999999999 22.934 11.024 23.636000000000003Q9.62 24.338 7.7219999999999995 24.338ZM23.997999999999998 24.416Q20.566 24.416 18.811 22.674Q17.055999999999997 20.932 17.055999999999997 17.448V5.878H20.409999999999997V17.058Q20.409999999999997 18.462 20.708999999999996 19.411Q21.008 20.36 21.801 20.841Q22.593999999999998 21.322 23.997999999999998 21.322Q25.402 21.322 26.195 20.841Q26.988 20.36 27.299999999999997 19.411Q27.612 18.462 27.612 17.084V5.878H30.965999999999998V17.318Q30.965999999999998 20.854 29.198 22.634999999999998Q27.43 24.416 23.997999999999998 24.416ZM34.814 24.0V5.878H40.794000000000004Q43.862 5.878 45.422 7.191000000000001Q46.982 8.504000000000001 46.982 11.13Q46.982 13.756 45.396 15.134Q43.81 16.512 40.794000000000004 16.512H38.142V24.0ZM38.142 13.522H40.456Q41.964 13.522 42.796 12.989Q43.628 12.456000000000001 43.628 11.156Q43.628 9.908000000000001 42.835 9.401Q42.042 8.894 40.456 8.894H38.142ZM49.946 24.0V5.878H62.01V8.894H53.3V13.21H61.438V16.2H53.3V20.984H62.01V24.0ZM65.494 24.0V5.878H71.47399999999999Q73.684 5.878 75.036 6.515000000000001Q76.38799999999999 7.152000000000001 77.02499999999999 8.335Q77.66199999999999 9.518 77.66199999999999 11.13Q77.66199999999999 13.626000000000001 76.24499999999999 14.991000000000001Q74.82799999999999 16.356 72.202 16.512Q71.604 16.538 70.97999999999999 16.538Q70.356 16.538 69.914 16.538H68.848V24.0ZM75.348 24.0 70.798 16.148 74.22999999999999 15.732000000000001 79.222 24.0ZM68.848 13.522H71.136Q71.994 13.522 72.709 13.327Q73.42399999999999 13.132 73.86599999999999 12.625Q74.30799999999999 12.118 74.30799999999999 11.182Q74.30799999999999 10.22 73.86599999999999 9.726Q73.42399999999999 9.232000000000001 72.709 9.063Q71.994 8.894 71.136 8.894H68.848ZM81.926 24.0V5.878H94.042V8.894H85.28V13.21H92.898V16.2H85.28V24.0ZM104.91 24.416Q102.33599999999998 24.416 100.37299999999999 23.233Q98.40999999999998 22.05 97.31799999999998 19.918Q96.22599999999998 17.786 96.22599999999998 14.952Q96.22599999999998 12.092 97.31799999999998 9.96Q98.40999999999998 7.827999999999999 100.37299999999999 6.645Q102.33599999999998 5.462 104.91 5.462Q107.50999999999999 5.462 109.47299999999998 6.645Q111.43599999999999 7.827999999999999 112.52799999999999 9.96Q113.61999999999999 12.092 113.61999999999999 14.952Q113.61999999999999 17.786 112.51499999999999 19.918Q111.41 22.05 109.447 23.233Q107.484 24.416 104.91 24.416ZM104.88399999999999 21.192Q106.54799999999999 21.192 107.731 20.425Q108.91399999999999 19.658 109.564 18.254Q110.21399999999998 16.85 110.21399999999998 14.952Q110.21399999999998 13.028 109.564 11.624Q108.91399999999999 10.22 107.731 9.453Q106.54799999999999 8.686 104.88399999999999 8.686Q103.29799999999999 8.686 102.089 9.440000000000001Q100.88 10.194 100.243 11.598Q99.606 13.002 99.606 14.952Q99.606 16.876 100.243 18.28Q100.88 19.684 102.089 20.438000000000002Q103.29799999999999 21.192 104.88399999999999 21.192ZM124.852 24.416Q122.27799999999999 24.416 120.315 23.233Q118.35199999999999 22.05 117.25999999999999 19.918Q116.16799999999999 17.786 116.16799999999999 14.952Q116.16799999999999 12.092 117.25999999999999 9.96Q118.35199999999999 7.827999999999999 120.315 6.645Q122.27799999999999 5.462 124.852 5.462Q127.452 5.462 129.415 6.645Q131.378 7.827999999999999 132.46999999999997 9.96Q133.56199999999998 12.092 133.56199999999998 14.952Q133.56199999999998 17.786 132.457 19.918Q131.352 22.05 129.389 23.233Q127.426 24.416 124.852 24.416ZM124.826 21.192Q126.49 21.192 127.673 20.425Q128.856 19.658 129.506 18.254Q130.156 16.85 130.156 14.952Q130.156 13.028 129.506 11.624Q128.856 10.22 127.673 9.453Q126.49 8.686 124.826 8.686Q123.24 8.686 122.031 9.440000000000001Q120.822 10.194 120.185 11.598Q119.548 13.002 119.548 14.952Q119.548 16.876 120.185 18.28Q120.822 19.684 122.031 20.438000000000002Q123.24 21.192 124.826 21.192ZM136.838 24.0V5.878H142.116Q146.64000000000001 5.878 149.11 8.27Q151.58 10.662 151.58 15.082Q151.58 19.398 149.13600000000002 21.698999999999998Q146.692 24.0 142.09 24.0ZM140.192 20.906H141.752Q143.806 20.906 145.236 20.386Q146.666 19.866 147.433 18.566Q148.2 17.266 148.2 14.952Q148.2 12.716000000000001 147.459 11.403Q146.71800000000002 10.09 145.353 9.531Q143.988 8.972000000000001 142.064 8.972000000000001H140.192ZM160.86200000000002 24.338Q157.97600000000003 24.338 156.11700000000002 22.83Q154.258 21.322 153.86800000000002 18.826L157.144 18.02Q157.43 19.684 158.457 20.516Q159.484 21.348 160.99200000000002 21.348Q161.798 21.348 162.435 21.075Q163.072 20.802 163.449 20.269Q163.82600000000002 19.736 163.82600000000002 19.008Q163.82600000000002 18.332 163.43600000000004 17.838Q163.04600000000002 17.344 162.25300000000001 16.928Q161.46 16.512 160.264 16.07Q158.548 15.394 157.39100000000002 14.627Q156.234 13.860000000000001 155.662 12.846Q155.09 11.832 155.09 10.454Q155.09 8.998000000000001 155.805 7.880000000000001Q156.52 6.7620000000000005 157.80700000000002 6.112Q159.09400000000002 5.462 160.81 5.462Q162.63000000000002 5.462 164.04700000000003 6.307Q165.46400000000003 7.152000000000001 166.322 8.816L163.644 10.454Q163.098 9.466000000000001 162.35700000000003 8.959Q161.616 8.452 160.70600000000002 8.452Q160.056 8.452 159.549 8.699000000000002Q159.042 8.946000000000002 158.743 9.375Q158.44400000000002 9.804 158.44400000000002 10.376000000000001Q158.44400000000002 10.974 158.79500000000002 11.442Q159.14600000000002 11.91 159.93900000000002 12.339Q160.73200000000003 12.768 162.00600000000003 13.236Q163.69600000000003 13.860000000000001 164.82700000000003 14.614Q165.95800000000003 15.368 166.55600000000004 16.369Q167.15400000000002 17.37 167.15400000000002 18.8Q167.15400000000002 20.412 166.36100000000002 21.673000000000002Q165.568 22.934 164.16400000000002 23.636000000000003Q162.76000000000002 24.338 160.86200000000002 24.338Z"/></g>
    <g transform="translate(49.66,0)"><path d="M1.742 51.3V33.178H7.7219999999999995Q10.79 33.178 12.35 34.491Q13.91 35.804 13.91 38.43Q13.91 41.056 12.324 42.434Q10.738 43.812 7.7219999999999995 43.812H5.069999999999999V51.3ZM5.069999999999999 40.821999999999996H7.3839999999999995Q8.892 40.821999999999996 9.724 40.289Q10.556 39.756 10.556 38.455999999999996Q10.556 37.208 9.762999999999998 36.70099999999999Q8.969999999999999 36.193999999999996 7.3839999999999995 36.193999999999996H5.069999999999999ZM15.34 51.3 22.619999999999997 33.178H25.142L32.422 51.3H28.756L23.92 38.144L19.006 51.3ZM20.124 47.763999999999996 21.164 44.748H26.624L27.716 47.763999999999996ZM34.918 51.3V33.178H40.898Q43.108000000000004 33.178 44.46 33.815Q45.812 34.452 46.449 35.635Q47.086 36.818 47.086 38.43Q47.086 40.926 45.669 42.291Q44.252 43.656 41.626000000000005 43.812Q41.028 43.837999999999994 40.403999999999996 43.837999999999994Q39.78 43.837999999999994 39.338 43.837999999999994H38.272000000000006V51.3ZM44.772000000000006 51.3 40.222 43.448 43.654 43.032 48.646 51.3ZM38.272000000000006 40.821999999999996H40.56Q41.418 40.821999999999996 42.132999999999996 40.626999999999995Q42.848 40.431999999999995 43.29 39.925Q43.732 39.418 43.732 38.482Q43.732 37.519999999999996 43.29 37.025999999999996Q42.848 36.532 42.132999999999996 36.363Q41.418 36.193999999999996 40.56 36.193999999999996H38.272000000000006ZM55.510000000000005 51.3V36.193999999999996H49.894000000000005V33.178H64.506V36.193999999999996H58.916000000000004V51.3ZM67.054 51.3V33.178H70.512L78.96199999999999 46.906H78.13V33.178H81.484V51.3H78.0L69.576 37.546H70.408V51.3ZM85.488 51.3V33.178H97.55199999999999V36.193999999999996H88.842V40.51H96.97999999999999V43.5H88.842V48.284H97.55199999999999V51.3ZM101.036 51.3V33.178H107.01599999999999Q109.226 33.178 110.578 33.815Q111.92999999999999 34.452 112.567 35.635Q113.204 36.818 113.204 38.43Q113.204 40.926 111.78699999999999 42.291Q110.36999999999999 43.656 107.744 43.812Q107.146 43.837999999999994 106.52199999999999 43.837999999999994Q105.898 43.837999999999994 105.456 43.837999999999994H104.39V51.3ZM110.89 51.3 106.34 43.448 109.77199999999999 43.032 114.764 51.3ZM104.39 40.821999999999996H106.678Q107.536 40.821999999999996 108.251 40.626999999999995Q108.966 40.431999999999995 109.40799999999999 39.925Q109.85 39.418 109.85 38.482Q109.85 37.519999999999996 109.40799999999999 37.025999999999996Q108.966 36.532 108.251 36.363Q107.536 36.193999999999996 106.678 36.193999999999996H104.39ZM123.448 51.638Q120.562 51.638 118.703 50.129999999999995Q116.844 48.622 116.454 46.126L119.73 45.32Q120.016 46.983999999999995 121.043 47.815999999999995Q122.07 48.647999999999996 123.578 48.647999999999996Q124.384 48.647999999999996 125.021 48.375Q125.658 48.102 126.035 47.568999999999996Q126.412 47.035999999999994 126.412 46.308Q126.412 45.632 126.022 45.138Q125.632 44.644 124.839 44.227999999999994Q124.04599999999999 43.812 122.85 43.37Q121.134 42.693999999999996 119.977 41.92699999999999Q118.82 41.16 118.24799999999999 40.146Q117.676 39.132 117.676 37.754Q117.676 36.298 118.39099999999999 35.18Q119.106 34.062 120.393 33.412Q121.67999999999999 32.762 123.396 32.762Q125.216 32.762 126.63300000000001 33.607Q128.05 34.452 128.908 36.116L126.23 37.754Q125.684 36.766 124.943 36.259Q124.202 35.751999999999995 123.292 35.751999999999995Q122.642 35.751999999999995 122.13499999999999 35.998999999999995Q121.628 36.245999999999995 121.32900000000001 36.675Q121.03 37.104 121.03 37.676Q121.03 38.274 121.381 38.742Q121.732 39.209999999999994 122.525 39.638999999999996Q123.318 40.068 124.592 40.536Q126.282 41.16 127.41300000000001 41.914Q128.544 42.668 129.142 43.669Q129.74 44.669999999999995 129.74 46.099999999999994Q129.74 47.711999999999996 128.947 48.973Q128.154 50.233999999999995 126.75 50.93599999999999Q125.346 51.638 123.448 51.638Z"/></g>
  </g>
</svg>
